<?xml version="1.0" encoding="utf-8"?>
<!-- Generator: Adobe Illustrator 24.0.1, SVG Export Plug-In . SVG Version: 6.00 Build 0)  -->
<svg version="1.1" id="Camada_1" xmlns="http://www.w3.org/2000/svg" xmlns:xlink="http://www.w3.org/1999/xlink" x="0px" y="0px"
	 viewBox="0 0 1347.4 584.9" style="enable-background:new 0 0 1347.4 584.9;" xml:space="preserve">
<style type="text/css">
	.st0{clip-path:url(#SVGID_2_);}
	.st1{clip-path:url(#SVGID_4_);}
	.st2{clip-path:url(#SVGID_6_);}
	.st3{clip-path:url(#SVGID_8_);}
	.st4{clip-path:url(#SVGID_10_);}
	.st5{fill:#071843;stroke:#071843;stroke-width:0.1;stroke-miterlimit:10;}
	.st6{fill:#595042;stroke:#595042;stroke-width:0.15;stroke-miterlimit:10;}
	.st7{fill:#595042;}
</style>
<title>LOGO</title>
<g>
	<defs>
		<path id="SVGID_1_" d="M427,463.7L427,463.7 M336.7,111.3c-6.3,0.5-12.2,1-15,1h-0.1c-10.4,0-9.8-1.8-15.6-1.8c-2,0-4,0.2-6,0.4
			c-14.7,1.5-29.2,5.2-42.9,10.9c-17,7.4-27.1,17.8-38.4,25.7c-8.8,6-18.1,8.8-26.5,19.7c-5.4,7-9.7,12.6-13.3,17.8l2.4,0.5l0.7-1.3
			l0.6-0.7l1-0.1c-0.2,1.6-0.3,3.2-0.5,4.8c-0.5,0-1,0.1-1.5,0.1c-1.6,0-3.2-0.1-4.7-0.3c-2.4,3.6-4.4,7.4-6.1,11.3
			c0,0.3,0.1,0.7,0.1,1l0.3,0.4l0.7-0.1l0.6-0.4l0.8,0.1c-0.5,0.7-0.9,1.3-1.4,2l-0.3,0.1h-2c-3,7.9-4.8,17.1-6.3,30.8
			c-4.5,16.4-12.7,48.9-9.1,68.9c2,11.1,7.8,21.9,10.3,32.5c2.1,8.4,4,16.4,7.5,23c5.7,10.7,8.5,18.5,10,25.7
			c1.2,5.6,5.5,17.6,7.6,20c0.3,0.3,0.5,0.5,0.7,0.5c0.3,0,0.4-0.8,0.5-1.6s0.5-1.6,1.4-1.6c1.2,0,3.3,1.2,7.4,5.1
			c13.4,12.9,24.6,26.2,26.3,26.2c0.7,0-0.2-2.2-3.2-7.4c-3.2-5.7-11.7-11-5.9-11.2h0.2c5.8,0,22.4,11.7,26,14.6
			c0.1,0.1,0.2,0.1,0.4,0.1c0.4,0,0.6-0.7,0.9-1.5s0.8-1.5,1.6-1.5h0.3c1.2,0.2,4.9,5.5,6.7,5.5c0.1,0,0.2,0,0.3,0
			c1.9-0.8,0.1-1.7-0.4-2.6c-1.6-3.3-4.9-5.6-7.1-7.6c-0.7-0.7-8.9-6.9-7.7-9.1c0.1-0.2,0.3-0.3,0.5-0.2c2.1,0,9.2,6.3,10.1,6.9
			c4.5,3,9.7,7.7,17.1,13.3c1.5,1.2,3.1,3.1,5.6,3.1h0.2c2.7-0.1,2.1-2,0.1-3.8c-6.2-5.7-7.9-7.3-7.3-7.3c0.8,0,5.1,2.6,8.4,3h0.3
			c1.3,0-0.3-1.3-1.1-2c-1.6-1.3-3.1-2.7-1.3-3.3c0.2-0.1,0.5-0.1,0.7-0.1c1.6,0.2,3.1,1,4.2,2.3c3.7,4.1,8.8,7.6,14.3,11.4
			c1.5,1.1,3,2.2,4.6,3.3c0-1.3-2.1-2.3-3.5-3.4c-9.5-7.9-15.2-15.9-20.5-24.2c-2.1-3.4-28-27.5-25.2-28.6c0.3-0.1,0.6-0.2,0.9-0.2
			c5.7,0,18.5,16.8,24.6,18.9h0.1c1.4,0-3-8.9-6.1-11.4c-12.6-10.4-13.5-15.8-23.1-25.5c-2-2.1-7.4-8.9-8.5-11.3
			c-5.2-11.9-2.6-13.6-4.8-24.6c-1.5-7.3-4.8-17.8-6-26.3c-1.2-8.1,4.2-14,1.9-22c-1.3-4.5-2.1-9-1.8-12.7c0.5-5,2.9-9,3.9-14.2
			c2-10.1,7.8-19,14.1-31.5c3.2-6.4,9.4-9.1,14.3-14.2c5.4-5.6,12.1-8.9,19.9-11.5c4-1.4,9.3-0.7,12.4-4.8c4.4-5.7,11.2-6.6,17.5-7
			c6.7-0.5,13.2-0.8,19.6-0.8c9,0,17.9,0.6,26.8,1.9c19.6,2.8,31.9,0.8,46.3,9.4c5.8,2.3,10.3,7,12.3,12.8
			c1.6,4.8,5.9,11.8,9.6,18.2c2.1,3.7,5.6,16,8.5,18.2c7.3,5.4,12,5.1,16.6,16.6c2.5,6.4,2.5,17.5,2.9,24.2c0.4,7,3.2,12.2,3.6,20
			c0.4,6.7-1.5,19.2-0.8,24.9c-1.1,16.3,1.6,16.6-4,24.5c-1.6,2.3-6.1,5.4-8.8,9.2c-0.6,0.9-7.5,8.8-11.2,13.2
			c-3.5,4.2-10,6.3-14.5,11.5c-2.1,2.5-7.8,5.1-6.2,7.2c0.2,0.2,0.5,0.3,0.8,0.3c1.3,0,3.9-1.1,6.3-2.2s4.7-2.2,5.6-2.2
			c0.4,0,0.5,0.3,0.2,0.9c-1.8,3.1-0.7,4-3.7,5.9c-11.4,6.8-8.6,9.6-22.1,15.5c-12.7,5.6-15.1,6.5-26.5,13.2
			c-2.1,1.2-13.7,4.1-17.4,4.1c-0.2,0-0.5,0-0.7,0c-0.2,0-0.4-0.1-0.6-0.1c-1.9,0.2-3.7,1.2-4.8,2.9c-0.9,1.4-0.6,2.9,2,2.9
			c0.3,0,0.7,0,1-0.1c0.7-0.1,1.5-0.1,2.2-0.1c4.8,0,2.5,2.4,3.5,2.6c0.6,0.1,1.2,0.2,1.8,0.2c5,0,9.7-3.4,14.4-5
			c4.1-1.3,5.8-1.5,6.9-1.5c0.2,0,0.4,0,0.6,0h0.6c1.3,0,2.8-0.3,8.4-3c2.1-1,10.8-0.7,18-6.8c0.8-0.8,1.9-1.4,3-1.5
			c2,0,2.1,3.4,0.6,5.9c-3.4,3,3.4-1-14.2,6.8c-12.9,5.8-24.4,6.6-36.5,11.8c-0.6,0.3-2.8,0.4-3.3,1.9c-1,2.8-5.7,3-4.8,4.4
			c0.7,1.1,5.1,1.9,6.7,2.9c4.7,3.1,10,5.8-3.1,8.4c-1.1,0.2-4.6,1-3.4,1.3s6.7,0.8,7.5,1c6.9,1.9-0.5,3.1-2.3,4
			c-0.5,0.3-0.3,1.3,2.4,1.3c1.4,0,2.8-0.2,4.2-0.5c5.4-1.2,15.8-5.2,16.5-5.2c0,0,0.1,0,0,0.1c13.9,0.5,0.5,7,3.2,7.2h0.7
			c2.2-0.1,4.3-0.4,6.4-0.8c23.1-4.2,21-9.1,43-14.6c3.2-0.8,5.3-4.4,8.9-4.4c0.7,0,1.4,0.1,2.1,0.4c-2.3,3.5-2.8,7.6-8.6,9.2
			c-1.6,0.6-2.9,1.6-3.8,3h0.3c5.8,0,16-3.5,19.7-7.4c2.6-2.7,9.8-7,10.4-7.1c8.4-2.4,13.4-7.7,15-16.3c0.7-3.8,10.3-11.5,12.5-12.4
			s4.5-2.3,5.6-2.3c0.7,0,0.9,0.5,0.3,1.9c-2.6,6.2-13.4,10.5-15.2,16c-0.2,0.5,0,0.7,0.4,0.7c0.9,0,3.1-1.3,5.3-2.5
			s4.2-2.5,4.7-2.5c0.1,0,0.1,0,0.1,0c0.5,1.1-3.7,4.9-2.9,6.1c0.2,0.5,0.7,0.8,1.2,0.8c2.2,0,5.4-6.4,10.3-8.3
			c7.3-2.8,11.2-5.1,13.6-11.2c4.9-12.6,10.1-12.1,12.2-19.6c5.2-19.2,14-11.2,14-26.1c0-18.3-15.7-27.4-14.4-44.9
			c0.6-9.1,4.5-13.3,1.6-24.1c-3.2-12-0.2-16.4-5.9-24.6c-2.1-12.8,16-4.3,17.1-23.5c0.5-9.6-31.5-21.9-51.3-51.9
			c-7.2-10.9,0.1-24.6-10.2-35.3c-5.2-5.1-21.3-23.3-26.3-25.5c-8-3.6-20.5-6.6-37-14.9c-17.8-9-31.3-15.7-50.2-18.3
			c-1.2-0.1-2.4-0.2-3.6-0.2c-4.5,0-11.3,0.5-17.6,1"/>
	</defs>
	<clipPath id="SVGID_2_">
		<use xlink:href="#SVGID_1_"  style="overflow:visible;"/>
	</clipPath>
	<g class="st0">
		
			<image style="overflow:visible;enable-background:new    ;" width="253" height="272" xlink:href="13D01143.png"  transform="matrix(1.5684 0 0 1.7949 152.1868 55.5)">
		</image>
	</g>
</g>
<g>
	<defs>
		<path id="SVGID_3_" d="M150.6,174.4l-0.4,1.2c0,0.8,0.4,1.5,1.1,1.9l1.7,0.7c0.7,0.2,1.1,1,0.9,1.7c0,0,0,0,0,0l-0.3,1.4
			c-0.1,0.6-0.1,1.2,0.2,1.8c0.6,1.2,1.1,2.4,1.7,3.6l0.7,0.8c0.9,0.8,1.9,1.7,2.8,2.5l0.4,0.1l0.2,0.1l0.7,0.5l1.2-0.1v-1.2
			l-3.2-3.2l-0.3-0.3c-0.3-0.7-0.6-1.5-0.8-2.3l0,0l2.5,1.8l0.3,0.2l0.9,1c0.4,0.8,1.1,1.5,2,1.8l0.4,0.3c0.9,1.7,1.9,3.4,2.7,5.1
			c0.3,0.7,0.6,1.5,0.7,2.3c0.2,0.9,0.4,1.8,0.5,2.8c0.2,1.1,0.3,2.2,0.4,3.3h1.9c0.4-1.1,0.8-2.1,1.3-3.1c-0.2-1.9-0.4-3.7-0.6-5.6
			l-0.2-0.6c-0.8-1.9-1.7-3.7-2.5-5.6l-0.1-0.2c0.5,0,1,0,1.5,0c2.1,0,4.3,0.2,6.4,0.5l1.6,0.2c0.6-1,1.3-1.9,1.9-2.9l-5.6-1.2
			c-5.4-0.2-2.8-0.7-8.1-0.9l-0.5-0.2c-1-0.8-1.9-1.6-2.9-2.4l1,0.1h0.4l3.5-1.2v-0.4l1-0.4l0.7-1.1l-1.1-0.5
			c-1.3,0.4-2.6,0.8-3.9,1.2c-0.2,0.1-0.5,0.1-0.8,0.1c-0.3,0-0.7-0.1-0.9-0.3c-0.8-0.5-1.7-0.9-2.6-1.3l-1.4-0.1
			c-0.6,0.2-1.2,0.4-1.8,0.5l-0.4-0.1v-0.5c0.4-0.6,0.2-1.4-0.3-1.9l-0.7-0.4l-0.5-0.4c-0.3-0.4-0.8-0.7-1.4-0.7
			C151.6,173.2,150.9,173.7,150.6,174.4"/>
	</defs>
	<clipPath id="SVGID_4_">
		<use xlink:href="#SVGID_3_"  style="overflow:visible;"/>
	</clipPath>
	<g class="st1">
		<g>
			<defs>
				<rect id="SVGID_5_" x="148.2" y="171.6" width="32.3" height="33.9"/>
			</defs>
			<clipPath id="SVGID_6_">
				<use xlink:href="#SVGID_5_"  style="overflow:visible;"/>
			</clipPath>
			<g class="st2">
				
					<image style="overflow:visible;enable-background:new    ;" width="22" height="23" xlink:href="13D01141.png"  transform="matrix(1.47 0 0 1.47 148.1871 171.595)">
				</image>
			</g>
		</g>
	</g>
</g>
<g>
	<defs>
		<path id="SVGID_7_" d="M169.6,202.4h2l0.3-0.1c0.5-0.6,0.9-1.3,1.4-2l-0.8-0.1l-0.6,0.4l-0.7,0.1l-0.3-0.4c0-0.4-0.1-0.7-0.1-1
			C170.4,200.3,170,201.3,169.6,202.4 M182.7,183.5l-0.6,0.7l-0.7,1.3L179,185c-0.7,1-1.3,1.9-1.9,2.9c1.6,0.2,3.1,0.3,4.7,0.3
			c0.5,0,1,0,1.5-0.1c0.2-1.6,0.3-3.1,0.5-4.8L182.7,183.5z"/>
	</defs>
	<clipPath id="SVGID_8_">
		<use xlink:href="#SVGID_7_"  style="overflow:visible;"/>
	</clipPath>
	<g class="st3">
		<g>
			<defs>
				<rect id="SVGID_9_" x="166.7" y="180.8" width="20" height="24.6"/>
			</defs>
			<clipPath id="SVGID_10_">
				<use xlink:href="#SVGID_9_"  style="overflow:visible;"/>
			</clipPath>
			<g class="st4">
				
					<image style="overflow:visible;enable-background:new    ;" width="13" height="16" xlink:href="13D01147.png"  transform="matrix(1.54 0 0 1.54 166.6572 180.8)">
				</image>
			</g>
		</g>
	</g>
</g>
<polygon class="st5" points="677,198.9 725.5,198.9 725.5,207.2 685.5,207.2 685.5,233.8 725.2,233.8 725.2,242.1 685.5,242.1 
	685.5,275.4 725.2,275.4 725.2,283.7 677,283.7 "/>
<rect x="743.5" y="196.8" class="st5" width="8.1" height="86.8"/>
<path class="st5" d="M805.8,227.9l-5.2,5.4c-4.3-4.2-8.5-6.3-12.6-6.3c-2.6,0-4.9,0.9-6.7,2.6c-1.9,1.7-2.8,3.7-2.8,6
	c0,2,0.8,4,2.3,5.8c1.5,1.9,4.8,4.1,9.7,6.6c6,3.1,10.1,6.1,12.2,9c2.1,2.9,3.2,6.2,3.2,9.8c0,5.1-1.8,9.5-5.4,13.1
	c-3.6,3.6-8.1,5.4-13.6,5.4c-3.6,0-7.1-0.8-10.4-2.4c-3.3-1.6-6-3.7-8.2-6.5l5.1-5.8c4.1,4.6,8.5,7,13.1,7c3.2,0,6-1,8.2-3.1
	c2.3-2.1,3.4-4.5,3.4-7.3c0-2.3-0.7-4.4-2.3-6.2c-1.5-1.8-4.9-4-10.2-6.7c-5.7-2.9-9.5-5.8-11.5-8.6c-2-2.8-3.1-6.1-3.1-9.7
	c0-4.8,1.6-8.7,4.9-11.9c3.3-3.2,7.4-4.7,12.3-4.7C794.1,219.4,799.9,222.2,805.8,227.9"/>
<path class="st5" d="M855.6,219.4c9.7,0,17.7,3.5,24,10.5c5.8,6.4,8.6,13.9,8.6,22.6c0,8.8-3,16.4-9.1,22.9
	c-6.1,6.5-13.9,9.8-23.5,9.8c-9.6,0-17.5-3.3-23.6-9.8c-6.1-6.5-9.1-14.2-9.1-22.9c0-8.7,2.9-16.2,8.6-22.6
	C837.9,222.9,845.9,219.4,855.6,219.4 M855.6,227.3c-6.7,0-12.5,2.5-17.3,7.4c-4.8,5-7.2,10.9-7.2,18c0,4.5,1.1,8.8,3.3,12.7
	c2.2,3.9,5.2,6.9,8.9,9.1c3.7,2.1,7.8,3.2,12.3,3.2c4.5,0,8.6-1.1,12.3-3.2c3.7-2.1,6.7-5.2,8.9-9.1c2.2-3.9,3.3-8.1,3.3-12.7
	c0-7-2.4-13-7.3-18C868,229.8,862.2,227.3,855.6,227.3"/>
<path class="st5" d="M949.4,198.9h16.9c9.4,0,15.8,0.4,19.1,1.2c5,1.1,9.1,3.6,12.3,7.4c3.2,3.8,4.7,8.5,4.7,14
	c0,4.6-1.1,8.7-3.3,12.2c-2.2,3.5-5.3,6.1-9.3,7.9c-4,1.8-9.6,2.7-16.7,2.7l30.5,39.3h-10.5l-30.5-39.3h-4.8v39.3h-8.5V198.9z
	 M957.9,207.2V236l14.6,0.1c5.6,0,9.8-0.5,12.5-1.6c2.7-1.1,4.8-2.8,6.3-5.2c1.5-2.4,2.3-5,2.3-7.9c0-2.8-0.8-5.4-2.3-7.7
	c-1.5-2.3-3.6-4-6-5c-2.5-1-6.7-1.5-12.5-1.5H957.9z"/>
<path class="st5" d="M1027.9,195.2c1.8,0,3.4,0.6,4.7,2c1.3,1.3,2,2.9,2,4.7c0,1.8-0.6,3.4-2,4.7c-1.3,1.3-2.9,2-4.7,2
	c-1.8,0-3.3-0.6-4.6-2c-1.3-1.3-2-2.9-2-4.7c0-1.8,0.6-3.4,2-4.7C1024.6,195.9,1026.1,195.2,1027.9,195.2 M1023.9,221h8.1v62.7h-8.1
	V221z"/>
<path class="st5" d="M1084.3,219.4c9.7,0,17.7,3.5,24,10.5c5.8,6.4,8.6,13.9,8.6,22.6c0,8.8-3,16.4-9.1,22.9
	c-6.1,6.5-13.9,9.8-23.5,9.8c-9.6,0-17.5-3.3-23.6-9.8c-6.1-6.5-9.1-14.2-9.1-22.9c0-8.7,2.9-16.2,8.6-22.6
	C1066.6,222.9,1074.6,219.4,1084.3,219.4 M1084.2,227.3c-6.7,0-12.5,2.5-17.3,7.4c-4.8,5-7.2,10.9-7.2,18c0,4.5,1.1,8.8,3.3,12.7
	c2.2,3.9,5.2,6.9,8.9,9.1c3.7,2.1,7.8,3.2,12.3,3.2c4.5,0,8.6-1.1,12.3-3.2c3.7-2.1,6.7-5.2,8.9-9.1c2.2-3.9,3.3-8.1,3.3-12.7
	c0-7-2.4-13-7.3-18C1096.7,229.8,1090.9,227.3,1084.2,227.3"/>
<path class="st5" d="M1169.3,227.9l-5.2,5.4c-4.3-4.2-8.5-6.3-12.6-6.3c-2.6,0-4.9,0.9-6.7,2.6c-1.9,1.7-2.8,3.7-2.8,6
	c0,2,0.8,4,2.3,5.8c1.5,1.9,4.8,4.1,9.7,6.6c6,3.1,10.1,6.1,12.2,9c2.1,2.9,3.2,6.2,3.2,9.8c0,5.1-1.8,9.5-5.4,13.1
	c-3.6,3.6-8.1,5.4-13.6,5.4c-3.6,0-7.1-0.8-10.4-2.4c-3.3-1.6-6-3.7-8.2-6.5l5.1-5.8c4.1,4.6,8.5,7,13.1,7c3.2,0,6-1,8.2-3.1
	c2.3-2.1,3.4-4.5,3.4-7.3c0-2.3-0.7-4.4-2.3-6.2c-1.5-1.8-4.9-4-10.2-6.7c-5.7-2.9-9.5-5.8-11.5-8.6c-2-2.8-3.1-6.1-3.1-9.7
	c0-4.8,1.6-8.7,4.9-11.9c3.3-3.2,7.4-4.7,12.3-4.7C1157.6,219.4,1163.4,222.2,1169.3,227.9"/>
<path class="st6" d="M774.4,372.4c0,3.8-1.3,6.8-3.9,9.2c-1.7,1.6-4.1,2.6-7,3.1c-1.7,0.3-4.4,0.5-8,0.5h-11.5v21.5h-2.5v-46.6h14.1
	C768.2,360.1,774.4,364.2,774.4,372.4 M744.1,362v21.2h9.9c6,0,10-0.4,12-1.2c3.9-1.6,5.9-4.8,5.9-9.8c0-5.6-3.2-8.9-9.6-9.8
	c-1.7-0.3-4.5-0.4-8.3-0.4H744.1z"/>
<path class="st6" d="M802,405.7c3,0,5.5-0.6,7.5-1.8c2.4-1.3,3.5-3.3,3.5-5.9c0-3.1-2.5-5.3-7.4-6.5l-0.7-0.2l-1.3-0.3
	c-6.1-1.4-10-2.8-11.8-4c-2-1.4-3-3.4-3-5.8c0-2.9,1.4-5.2,4.2-6.8c2.4-1.4,5.3-2.1,8.6-2.1c3.5,0,6.3,0.8,8.6,2.5
	c2.3,1.7,3.7,4.1,4,7.2H812c-0.8-5.2-4.3-7.9-10.7-7.9c-2.6,0-4.9,0.5-6.8,1.6c-2.3,1.3-3.4,3-3.4,5.3c0,3.4,3.8,5.9,11.5,7.7
	l0.7,0.2c3.9,0.9,6.7,1.8,8.2,2.8c2.5,1.5,3.8,3.7,3.8,6.5c0,3-1.4,5.4-4.3,7.2c-2.5,1.5-5.6,2.3-9.1,2.3c-4,0-7.3-0.9-9.8-2.7
	c-2.7-1.9-4.1-4.6-4.5-8.2h2.2C791.2,402.7,795.2,405.7,802,405.7"/>
<path class="st6" d="M834.2,359.6c1.1,0,1.6,1,1.6,3c0,2.1-0.5,3.1-1.6,3.1c-1,0-1.5-1-1.5-3.1C832.6,360.6,833.1,359.6,834.2,359.6
	 M833.1,373h2.2v33.7h-2.2V373z"/>
<path class="st6" d="M879.1,404.5c-2.7,2-6.1,3-10.2,3c-5.4,0-9.5-1.8-12.4-5.3c-2.6-3.2-3.8-7.3-3.8-12.3c0-5.1,1.3-9.2,3.9-12.3
	c2.9-3.5,7.1-5.3,12.5-5.3c6.8,0,11.2,2.4,13.3,7.3l-1.9,1.2c-0.6-1.6-1.8-3.1-3.5-4.3c-2.2-1.6-4.8-2.3-7.9-2.3
	c-4.8,0-8.4,1.6-10.9,4.9c-2.2,2.8-3.2,6.5-3.2,11c0,4.5,1.1,8.2,3.2,11c2.5,3.2,6.1,4.9,10.9,4.9c2.9,0,5.5-0.7,7.7-2.2
	c2.2-1.4,3.6-3.5,4.4-6.1l1.9,1C882.3,401,880.9,403,879.1,404.5"/>
<path class="st7" d="M903,377.7c2.9-3.5,7.1-5.3,12.5-5.3c5.5,0,9.7,1.8,12.6,5.3c2.6,3.1,3.9,7.2,3.9,12.3c0,5.1-1.3,9.2-3.9,12.4
	c-3,3.5-7.2,5.2-12.6,5.2c-5.5,0-9.7-1.7-12.5-5.2c-2.6-3.2-3.9-7.3-3.9-12.4C899.1,384.9,900.4,380.8,903,377.7 M904.6,400.9
	c2.5,3.2,6.1,4.9,10.9,4.9s8.4-1.6,11-4.9c2.2-2.8,3.2-6.4,3.2-11c0-4.5-1.1-8.2-3.2-11c-2.5-3.2-6.2-4.9-11-4.9
	c-4.8,0-8.4,1.6-10.9,4.9c-2.2,2.8-3.2,6.5-3.2,11C901.4,394.5,902.5,398.2,904.6,400.9 M917.5,358.4h2.6l-4.9,10.4h-2.6
	L917.5,358.4z"/>
<rect x="949.4" y="360.1" class="st6" width="2.2" height="46.6"/>
<path class="st6" d="M972.9,377.7c2.9-3.5,7.1-5.3,12.5-5.3c5.5,0,9.7,1.8,12.6,5.3c2.6,3.1,3.9,7.2,3.9,12.3
	c0,5.1-1.3,9.2-3.9,12.4c-3,3.5-7.2,5.2-12.6,5.2c-5.5,0-9.7-1.7-12.5-5.2c-2.6-3.2-3.9-7.3-3.9-12.4
	C969,384.9,970.3,380.8,972.9,377.7 M974.6,400.9c2.5,3.2,6.1,4.9,10.9,4.9s8.4-1.6,11-4.9c2.2-2.8,3.2-6.4,3.2-11
	c0-4.5-1.1-8.2-3.2-11c-2.5-3.2-6.2-4.9-11-4.9c-4.8,0-8.4,1.6-10.9,4.9c-2.2,2.8-3.2,6.5-3.2,11
	C971.3,394.5,972.4,398.2,974.6,400.9"/>
<path class="st6" d="M1033.8,407.6c-5.5,0-9.7-1.7-12.5-5.3c-2.5-3.2-3.8-7.3-3.8-12.4c0-5.1,1.3-9.3,3.9-12.4
	c2.9-3.5,7.1-5.3,12.6-5.3c3.2,0,6.1,0.7,8.6,2.1c2.5,1.4,4.4,3.4,5.5,6.2V373h2.2v31.9c0,4.2-0.8,7.4-2.4,9.5c-3,3.9-8,5.8-15,5.8
	c-3.8,0-7-0.8-9.6-2.3c-2.8-1.7-4.3-4.3-4.4-7.7h2.2c0.2,2.9,1.6,5,4.1,6.4c2.2,1.2,4.9,1.8,8.3,1.8c6.3,0,10.5-1.9,12.9-5.7
	c1.1-1.8,1.7-5,1.7-9.7v-3.4C1045.5,404.9,1040.7,407.6,1033.8,407.6 M1044.8,379c-2.5-3.2-6.1-4.9-10.9-4.9
	c-4.8,0-8.4,1.6-10.9,4.9c-2.2,2.8-3.3,6.4-3.3,11c0,4.5,1.1,8.2,3.2,11c2.5,3.2,6.2,4.9,11,4.9c4.8,0,8.4-1.6,10.9-4.9
	c2.2-2.8,3.2-6.4,3.2-11C1048.1,385.5,1047,381.8,1044.8,379"/>
<path class="st6" d="M1071.4,377.7c2.9-3.5,7.1-5.3,12.5-5.3s9.7,1.8,12.6,5.3c2.6,3.1,3.9,7.2,3.9,12.3c0,5.1-1.3,9.2-3.9,12.4
	c-3,3.5-7.2,5.2-12.6,5.2c-5.5,0-9.7-1.7-12.5-5.2c-2.6-3.2-3.9-7.3-3.9-12.4C1067.5,384.9,1068.8,380.8,1071.4,377.7 M1073.1,400.9
	c2.5,3.2,6.1,4.9,10.9,4.9c4.8,0,8.4-1.6,11-4.9c2.2-2.8,3.2-6.4,3.2-11c0-4.5-1.1-8.2-3.2-11c-2.5-3.2-6.2-4.9-11-4.9
	c-4.8,0-8.4,1.6-10.9,4.9c-2.2,2.8-3.2,6.5-3.2,11C1069.9,394.5,1070.9,398.2,1073.1,400.9"/>
</svg>
